<svg width="300" height="129" viewBox="0 0 300 129" fill="none" xmlns="http://www.w3.org/2000/svg">
<g clip-path="url(#clip0_6307_550)">
<path d="M56.21 69.6847L60.3119 81.7305C62.5312 88.2442 64.5126 93.4536 64.7709 93.4536C64.7752 93.4536 64.779 93.4517 64.7823 93.4489C65.0661 93.1982 73.0948 69.8829 73.0948 69.8829H88.6553L69.8824 124.583H59.0671C59.0671 124.583 47.5233 91.2428 47.5706 91.116L35.5205 124.163H24.8141L6.27766 69.6847L21.7625 69.6946C21.7625 69.6946 30.2449 93.7385 30.3579 93.7385C30.3584 93.7385 30.3584 93.738 30.3589 93.7375L38.8228 69.6842H56.21M0.99115 65.8965L2.69481 70.9039L21.2312 125.382L22.1041 127.948H24.8145H35.521H38.1694L39.0769 125.459L47.4438 102.514C48.1648 104.611 48.944 106.872 49.7232 109.132C52.604 117.484 55.4909 125.821 55.4909 125.821L56.3728 128.368H59.0676H69.8828H72.5852L73.4624 125.812L92.2353 71.112L93.956 66.098H88.6553H73.0948H70.3952L69.5162 68.6509C68.1092 72.7362 66.2418 78.1278 64.6451 82.6909C64.4043 81.9987 64.1535 81.2711 63.8942 80.5094L59.7929 68.464L58.9195 65.8993H56.21H38.8233H36.1426L35.2527 68.4281L30.3073 82.4823C28.6737 77.8903 26.7798 72.5389 25.3321 68.4352L24.4417 65.9116L21.7653 65.9097L6.2805 65.8998L0.99115 65.8965Z" fill="#659C96"/>
<path d="M295.858 69.4721L295.823 83.8097C295.823 83.8097 280.379 83.7581 272.528 83.7581C269.915 83.7581 268.144 83.7643 268.059 83.7794C266.706 84.0259 265.845 86.9029 266.229 88.1656C266.417 88.8043 267.833 90.8907 269.365 92.8068C270.893 94.7233 273.406 97.8601 274.938 99.7752C278.874 104.687 279.414 105.656 279.778 108.476C280.369 113.056 278.203 118.014 274.182 121.283C270.152 124.562 270.328 124.585 240.41 124.585C239.976 124.585 239.541 124.585 239.096 124.585C220.9 124.58 211.277 124.429 209.876 124.117C207.388 123.554 203.423 120.318 192.944 110.264C189.174 106.652 185.701 103.489 185.522 103.488C185.518 103.488 185.515 103.491 185.515 103.495L185.392 124.586L168.408 124.511L168.303 70.1127H189.721H206.181C217.597 70.5248 225.323 81.8978 223.785 89.1506C223.435 90.7965 222.546 93.182 221.807 94.4494C220.288 97.0515 216.423 100.392 213.286 101.826C212.127 102.35 211.181 102.96 211.181 103.178C211.181 103.987 214.995 107.743 216.423 108.339C217.643 108.85 221.197 108.963 236.866 108.963C238.703 108.963 240.371 108.964 241.885 108.964C257.636 108.964 256.843 108.851 258.06 106.248C258.912 104.436 258.264 103.353 252.27 96.6016C244.676 89.0456 245.471 85.4263 245.419 82.7532C245.311 79.5503 247.833 69.4735 260.943 69.4735L295.858 69.4721ZM194.107 94.6036C201.379 94.6036 202.855 94.4906 204.402 93.8183C209.625 91.5474 209.905 84.8392 204.894 81.8624C203.797 81.209 202.387 81.1011 194.505 81.0581L185.384 81.0103C185.459 81.0813 185.355 94.0539 185.355 94.0539C185.355 94.0539 187.64 94.6036 194.107 94.6036ZM299.652 65.6873H295.857H260.942C253.357 65.6873 248.871 68.6811 246.443 71.1928C242.494 75.2772 241.564 80.4203 241.635 82.845C241.639 83.047 241.637 83.2542 241.634 83.4705C241.6 87.411 242.18 91.8719 249.516 99.1994C250.966 100.833 253.392 103.57 254.309 104.931C252.304 105.178 247.222 105.178 241.884 105.178H239.617L236.866 105.177C227.449 105.177 219.508 105.15 217.881 104.828C217.653 104.68 217.334 104.424 216.983 104.12C220.236 102.116 223.526 99.0107 225.075 96.3551C226.015 94.7404 227.051 91.9822 227.487 89.936C228.452 85.3823 226.86 79.889 223.228 75.2374C218.991 69.8104 212.827 66.5635 206.316 66.3288L206.248 66.326H206.179H189.72H168.302H164.509L164.517 70.1189L164.621 124.516L164.629 128.277L168.39 128.294L185.374 128.369L189.153 128.385L189.175 124.606L189.249 111.971C189.595 112.301 189.954 112.643 190.322 112.996C201.784 123.991 205.631 127.037 209.039 127.808C209.975 128.016 211.524 128.362 239.092 128.37H240.407C255.332 128.37 262.823 128.37 267.279 127.939C272.384 127.446 274.025 126.288 276.486 124.285L276.568 124.218C281.623 120.108 284.291 113.89 283.53 107.99C283.034 104.153 282.019 102.559 277.89 97.4078L276.662 95.8749C275.224 94.0776 273.486 91.9069 272.322 90.446C271.382 89.2708 270.644 88.2276 270.199 87.5444C270.784 87.543 271.543 87.542 272.526 87.542C280.282 87.542 295.654 87.5931 295.809 87.5941L299.597 87.6064L299.607 83.8177L299.642 69.4797L299.652 65.6873ZM189.163 90.6806C189.17 89.7245 189.175 88.6524 189.181 87.5785C189.186 86.6322 189.19 85.6841 189.192 84.8155L194.484 84.8429C197.526 84.8595 202.103 84.8846 202.995 85.1377C204.134 85.8289 204.769 86.8977 204.7 88.0047C204.662 88.6027 204.378 89.7023 202.893 90.3471C202.065 90.7067 200.745 90.8188 194.107 90.8188C192.002 90.8188 190.377 90.7577 189.163 90.6806Z" fill="#659C96"/>
<path d="M133.89 69.2494L152.951 124.092L137.419 124.163L134.841 115.926L107.069 115.703L104.619 123.95L89.2425 123.789L108.063 69.2731L133.89 69.2494ZM121.399 77.2903C121.36 77.4479 118.966 84.0175 116.563 90.5866C114.141 97.2101 111.71 103.834 111.677 103.885C111.677 103.886 111.676 103.886 111.677 103.886C111.677 103.886 111.677 103.886 111.677 103.885C111.741 103.866 120.342 103.847 125.855 103.847C128.435 103.847 130.338 103.852 130.373 103.861C130.374 103.863 130.374 103.863 130.374 103.863C130.374 103.863 130.374 103.863 130.374 103.862C130.374 103.862 130.374 103.862 130.373 103.861C130.277 103.611 121.427 77.6102 121.399 77.2903C121.4 77.2885 121.4 77.2875 121.4 77.2875C121.399 77.2875 121.399 77.2885 121.399 77.2903ZM136.58 65.4622L133.887 65.4645L108.06 65.4887L105.365 65.491L104.486 68.0392L85.6653 122.555L83.9512 127.52L89.2037 127.574L104.58 127.736L107.434 127.765L108.247 125.03L109.887 119.512L132.054 119.69L133.808 125.295L134.643 127.963L137.438 127.95L152.97 127.879L158.266 127.855L156.527 122.852L137.465 68.0094L136.58 65.4622ZM117.125 100.066C117.841 98.1128 118.807 95.4724 120.118 91.8867C120.529 90.7626 120.905 89.7336 121.25 88.7902C121.564 89.7156 121.905 90.7224 122.276 91.8171C122.582 92.7189 123.925 96.676 125.077 100.062C121.652 100.062 119.073 100.063 117.125 100.066Z" fill="#659C96"/>
<path d="M140.315 3.79055V17.3214H113.215V58.7043H97.0582V17.2883L65.4262 17.3782C61.6129 17.3782 61.102 20.4156 61.102 21.5794C61.102 23.0082 62.034 24.437 67.153 30.9186C70.4742 35.1293 73.5258 39.3305 73.9279 40.2483C76.1232 45.3011 73.2845 53.1736 68.1134 56.3718C64.4279 58.6489 65.0576 58.7047 37.6888 58.7047C36.2817 58.7047 34.8047 58.7047 33.2453 58.7047H3.78487V43.5037H50.1022L51.4695 42.5528C52.392 41.9094 52.9266 41.0247 53.1301 39.8135C53.4139 38.0725 53.2673 37.8454 47.5474 31.4016C40.7867 23.7846 40.0723 22.3936 40.4224 17.5301C40.8198 11.9805 45.7685 3.91876 54.4169 3.91876L140.315 3.79055ZM144.099 0L140.308 0.00567779L54.4108 0.133416C49.463 0.133416 44.8677 2.27092 41.4751 6.1523C38.7244 9.29942 36.919 13.4519 36.6465 17.2595C36.1862 23.6516 37.6575 25.9614 44.7159 33.9138C46.7644 36.2212 48.7122 38.4159 49.3622 39.348C49.3518 39.3853 49.3424 39.4095 49.3367 39.4232C49.3296 39.4289 49.3187 39.4374 49.3036 39.4478L48.9147 39.7184H3.78487H0V43.5033V58.7043V62.4891H3.78487H33.2453H35.5811H37.6888C51.1828 62.4891 57.8432 62.4763 61.7672 62.1887C66.257 61.8599 67.6895 61.0897 69.8355 59.7569L70.1033 59.5909C76.8508 55.4176 80.3281 45.4795 77.3996 38.7391C76.496 36.6773 70.7747 29.3971 70.1251 28.5739C68.3292 26.2996 65.3647 22.5465 64.8953 21.4602C64.9067 21.3689 64.9289 21.2743 64.9526 21.2085C65.0307 21.1886 65.1802 21.1621 65.4262 21.1621L93.2733 21.0831V58.7033V62.4882H97.0582H113.215H117V58.7033V21.1054H140.315H144.099V17.3205V3.7896V0Z" fill="#659C96"/>
<path d="M184.342 4.23018L203.351 59.2148L187.848 59.1297L185.331 50.8929L157.683 50.7699L155.213 58.7039H139.426L158.226 4.23018H184.342ZM162.195 39.0609L181.025 39.0372C181.026 39.0372 181.026 39.0377 181.026 39.0377C181.09 39.0377 171.875 11.9754 171.814 11.9565C171.746 11.9542 161.983 39.0609 162.195 39.0609ZM187.038 0.445312H184.342H158.226H155.529L154.649 2.99537L135.848 57.4696L134.115 62.4892H139.426H155.214H158L158.828 59.8289L160.465 54.5675L182.527 54.6654L184.23 60.2358L185.044 62.8989L187.829 62.9146L203.333 62.9997L208.678 63.0291L206.931 57.9781L187.922 2.99347L187.038 0.445312ZM167.453 35.2694C168.621 31.9449 170.247 27.3888 171.718 23.2941C173.113 27.3836 174.656 31.926 175.781 35.259L167.453 35.2694Z" fill="#659C96"/>
<path d="M237.731 4.23018C249.995 4.23018 258.506 4.40523 260.142 4.6891C263.927 5.34672 267.348 7.36689 269.912 10.4705C272.595 13.716 273.21 15.2678 273.56 19.715C274.062 25.9932 271.076 31.4103 265.186 34.9255C263.468 35.9521 261.704 36.9504 261.264 37.1491C260.587 37.4566 260.678 37.7499 261.888 39.1692C262.668 40.0823 264.022 41.3834 264.893 42.0599L266.482 43.2948L295.853 43.7158L296.141 58.7039H278.134C264.206 58.7039 259.749 58.5762 258.443 58.1362C256.489 57.4738 251.787 53.4902 242.229 44.3971L235.407 37.906L235.479 58.7039H217.954V4.23018H237.731ZM235.149 28.723H244.456C253.511 28.723 253.794 28.6946 255.086 27.7247C257.396 25.9932 258.213 24.2096 257.968 21.4703C257.717 18.6458 256.629 17.1744 253.899 15.9917C252.361 15.3198 250.88 15.211 243.622 15.211H235.149V28.723ZM237.731 0.445312H217.955H214.171V4.23018V58.7039V62.4888H217.955H235.481H239.279L239.266 58.6906L239.224 46.7607L239.621 47.1388C251.442 58.386 254.929 60.9407 257.23 61.7204C258.996 62.3161 261.952 62.4888 278.135 62.4888H296.142H300L299.926 58.631L299.638 43.643L299.568 39.9839L295.909 39.9314L267.805 39.5288L267.216 39.0713C267.029 38.9251 266.802 38.7321 266.559 38.5135C266.77 38.3886 266.963 38.2737 267.13 38.1743C274.228 33.9386 277.948 27.1002 277.335 19.4141C276.926 14.2293 276.001 11.8936 272.831 8.05952C269.716 4.28932 265.44 1.76812 260.792 0.960526C258.208 0.512492 245.235 0.445312 237.731 0.445312ZM238.934 18.9959H243.622C250.259 18.9959 251.574 19.1061 252.384 19.46C253.921 20.1262 254.077 20.4493 254.198 21.8052C254.319 23.1526 254.152 23.6948 252.815 24.6969C252.771 24.7295 252.738 24.755 252.71 24.7754C251.828 24.9386 248.553 24.9386 244.456 24.9386H238.934L238.934 18.9959Z" fill="#659C96"/>
</g>
<defs>
<clipPath id="clip0_6307_550">
<rect width="300" height="128.386" fill="white"/>
</clipPath>
</defs>
</svg>
